<?xml version="1.0" encoding="utf-8"?><svg version="1.1" id="Layer_1" xmlns="http://www.w3.org/2000/svg" xmlns:xlink="http://www.w3.org/1999/xlink" x="0px" y="0px" viewBox="0 0 122.88 114.75" style="enable-background:new 0 0 122.88 114.75" xml:space="preserve"><style type="text/css">.st0{fill-rule:evenodd;clip-rule:evenodd;}</style><g><path fill="#f8f8f8" class="st0" d="M44.59,79.57c6.76,14.1,27.27,14.6,33.74,0.08c-1.77-1.79-3.08-3.7-4.38-5.61c-0.21-0.31-0.43-0.62-0.64-0.94 c-3.13,2.48-6.92,4.06-11.86,4.05c-5.33-0.01-9.35-2.05-12.64-5.06c-0.2-0.18-0.39-0.36-0.58-0.55c-0.47,1.31-1.07,2.88-1.71,4.34 C45.9,77.29,45.23,78.62,44.59,79.57L44.59,79.57z M80.24,78.08c7.22,5.1,24.78,6.33,31.52,10.09c2.24,1.25,4.26,2.84,5.89,4.99 c3.39,4.48,10.33,20.74-0.92,21.6H95.56l2.6-29.12c-5.67-1.11-11.68-1.97-17.96-5.59c-3.87,17.04-30.18,19.48-37.75,0.46 c-5.63,2.84-11.11,4.46-17.66,5.47l4.08,28.78H6.17c-11.25-0.86-4.31-17.12-0.92-21.6c1.63-2.15,3.65-3.74,5.89-4.99 c6.72-3.75,24.21-4.98,31.46-10.05c0.53-0.8,1.11-1.97,1.66-3.23c0.83-1.9,1.59-3.98,2.08-5.4c-2.03-2.39-3.77-5.09-5.44-7.74 l-5.5-8.74c-2.01-3-3.06-5.74-3.12-7.99c-0.03-1.06,0.15-2.02,0.54-2.86c0.41-0.88,1.04-1.62,1.89-2.2 c0.4-0.27,0.84-0.49,1.33-0.68c-0.36-4.74-0.49-10.72-0.26-15.72c0.12-1.19,0.35-2.37,0.68-3.56c1.41-5.02,4.93-9.06,9.29-11.84 c2.4-1.53,5.04-2.69,7.79-3.47c1.74-0.49-0.25-4.43,1.55-4.61C63.81-0.81,76.7,5.51,82.8,12.1c3.05,3.3,4.97,7.68,5.38,13.48 l-0.34,14.27v0c1.53,0.46,2.5,1.43,2.9,3c0.44,1.73-0.04,4.18-1.51,7.51l0,0c-0.03,0.06-0.06,0.12-0.09,0.18l-6.27,10.32 c-2.3,3.79-4.64,7.59-7.69,10.6c0.27,0.39,0.55,0.8,0.82,1.2c1.24,1.82,2.49,3.64,4.1,5.27C80.15,77.97,80.2,78.02,80.24,78.08 L80.24,78.08z M39.2,41.82c-1.22,0.05-2.14,0.3-2.77,0.72c-0.36,0.24-0.63,0.55-0.79,0.92c-0.19,0.41-0.28,0.9-0.26,1.47 c0.05,1.67,0.92,3.86,2.62,6.38l0.02,0.04l0,0l5.5,8.74c2.2,3.51,4.52,7.08,7.39,9.71c2.76,2.53,6.11,4.23,10.54,4.25 c4.8,0.01,8.31-1.76,11.16-4.43c2.96-2.77,5.3-6.58,7.6-10.37l6.19-10.2c1.15-2.63,1.58-4.4,1.31-5.43 c-0.16-0.62-0.84-0.92-1.99-0.98c-0.25-0.01-0.5-0.01-0.75-0.01c-0.28,0.01-0.56,0.03-0.87,0.05c-0.16,0.01-0.33,0-0.48-0.03 c-0.55,0.03-1.12-0.01-1.7-0.09l2.12-9.39c-15.74,2.48-27.51-9.21-44.15-2.34l1.2,11.07C40.42,41.93,39.79,41.91,39.2,41.82 L39.2,41.82L39.2,41.82z"/></g></svg>